%TF.GenerationSoftware,KiCad,Pcbnew,10.0.3*%
%TF.CreationDate,2026-07-22T21:37:07+02:00*%
%TF.ProjectId,rgb_lamp,7267625f-6c61-46d7-902e-6b696361645f,rev?*%
%TF.SameCoordinates,Original*%
%TF.FileFunction,Copper,L1,Top*%
%TF.FilePolarity,Positive*%
%FSLAX46Y46*%
G04 Gerber Fmt 4.6, Leading zero omitted, Abs format (unit mm)*
G04 Created by KiCad (PCBNEW 10.0.3) date 2026-07-22 21:37:07*
%MOMM*%
%LPD*%
G01*
G04 APERTURE LIST*
G04 Aperture macros list*
%AMRoundRect*
0 Rectangle with rounded corners*
0 $1 Rounding radius*
0 $2 $3 $4 $5 $6 $7 $8 $9 X,Y pos of 4 corners*
0 Add a 4 corners polygon primitive as box body*
4,1,4,$2,$3,$4,$5,$6,$7,$8,$9,$2,$3,0*
0 Add four circle primitives for the rounded corners*
1,1,$1+$1,$2,$3*
1,1,$1+$1,$4,$5*
1,1,$1+$1,$6,$7*
1,1,$1+$1,$8,$9*
0 Add four rect primitives between the rounded corners*
20,1,$1+$1,$2,$3,$4,$5,0*
20,1,$1+$1,$4,$5,$6,$7,0*
20,1,$1+$1,$6,$7,$8,$9,0*
20,1,$1+$1,$8,$9,$2,$3,0*%
G04 Aperture macros list end*
%ADD10C,0.200000*%
%TA.AperFunction,NonConductor*%
%ADD11C,0.200000*%
%TD*%
%TA.AperFunction,ComponentPad*%
%ADD12C,1.348000*%
%TD*%
%TA.AperFunction,SMDPad,CuDef*%
%ADD13RoundRect,0.250000X0.400000X0.625000X-0.400000X0.625000X-0.400000X-0.625000X0.400000X-0.625000X0*%
%TD*%
%TA.AperFunction,ComponentPad*%
%ADD14C,2.100000*%
%TD*%
%TA.AperFunction,ComponentPad*%
%ADD15C,1.750000*%
%TD*%
%TA.AperFunction,ComponentPad*%
%ADD16R,1.700000X1.700000*%
%TD*%
%TA.AperFunction,ComponentPad*%
%ADD17C,1.700000*%
%TD*%
%TA.AperFunction,ViaPad*%
%ADD18C,5.000000*%
%TD*%
%TA.AperFunction,Conductor*%
%ADD19C,0.500000*%
%TD*%
G04 APERTURE END LIST*
D10*
D11*
X130476816Y-106617219D02*
X131048244Y-106617219D01*
X130762530Y-107617219D02*
X130762530Y-106617219D01*
X131572054Y-106617219D02*
X131762530Y-106617219D01*
X131762530Y-106617219D02*
X131857768Y-106664838D01*
X131857768Y-106664838D02*
X131953006Y-106760076D01*
X131953006Y-106760076D02*
X132000625Y-106950552D01*
X132000625Y-106950552D02*
X132000625Y-107283885D01*
X132000625Y-107283885D02*
X131953006Y-107474361D01*
X131953006Y-107474361D02*
X131857768Y-107569600D01*
X131857768Y-107569600D02*
X131762530Y-107617219D01*
X131762530Y-107617219D02*
X131572054Y-107617219D01*
X131572054Y-107617219D02*
X131476816Y-107569600D01*
X131476816Y-107569600D02*
X131381578Y-107474361D01*
X131381578Y-107474361D02*
X131333959Y-107283885D01*
X131333959Y-107283885D02*
X131333959Y-106950552D01*
X131333959Y-106950552D02*
X131381578Y-106760076D01*
X131381578Y-106760076D02*
X131476816Y-106664838D01*
X131476816Y-106664838D02*
X131572054Y-106617219D01*
X132429197Y-107617219D02*
X132429197Y-106617219D01*
X132429197Y-106617219D02*
X132810149Y-106617219D01*
X132810149Y-106617219D02*
X132905387Y-106664838D01*
X132905387Y-106664838D02*
X132953006Y-106712457D01*
X132953006Y-106712457D02*
X133000625Y-106807695D01*
X133000625Y-106807695D02*
X133000625Y-106950552D01*
X133000625Y-106950552D02*
X132953006Y-107045790D01*
X132953006Y-107045790D02*
X132905387Y-107093409D01*
X132905387Y-107093409D02*
X132810149Y-107141028D01*
X132810149Y-107141028D02*
X132429197Y-107141028D01*
D12*
%TO.P,U1,5V,5V_5V*%
%TO.N,+5V*%
X159095000Y-89625000D03*
%TO.P,U1,G,GND_G*%
%TO.N,GND*%
X159095000Y-92165000D03*
%TO.P,U1,3.3,3V3_3.3*%
%TO.N,unconnected-(U1-3V3-Pad3.3)*%
X159095000Y-94705000D03*
%TO.P,U1,4,GPIO4_4*%
%TO.N,unconnected-(U1-GPIO4-Pad4)*%
X159095000Y-97245000D03*
%TO.P,U1,3,GPIO3_3*%
%TO.N,unconnected-(U1-GPIO3-Pad3)*%
X159095000Y-99785000D03*
%TO.P,U1,2,GPIO2_2*%
%TO.N,Net-(J1-Pin_2)*%
X159095000Y-102325000D03*
%TO.P,U1,1,GPIO1_1*%
%TO.N,unconnected-(U1-GPIO1-Pad1)*%
X159095000Y-104865000D03*
%TO.P,U1,0,GPIO0_0*%
%TO.N,unconnected-(U1-GPIO0-Pad0)*%
X159095000Y-107405000D03*
%TO.P,U1,21,GPIO21_21*%
%TO.N,unconnected-(U1-GPIO21-Pad21)*%
X143855000Y-107405000D03*
%TO.P,U1,20,GPIO20_20*%
%TO.N,unconnected-(U1-GPIO20-Pad20)*%
X143855000Y-104865000D03*
%TO.P,U1,10,GPIO10_10*%
%TO.N,unconnected-(U1-GPIO10-Pad10)*%
X143855000Y-102325000D03*
%TO.P,U1,9,GPIO9_9*%
%TO.N,unconnected-(U1-GPIO9-Pad9)*%
X143855000Y-99785000D03*
%TO.P,U1,8,GPIO8_8*%
%TO.N,unconnected-(U1-GPIO8-Pad8)*%
X143855000Y-97245000D03*
%TO.P,U1,7,GPIO7_7*%
%TO.N,unconnected-(U1-GPIO7-Pad7)*%
X143855000Y-94705000D03*
%TO.P,U1,6,GPIO6_6*%
%TO.N,unconnected-(U1-GPIO6-Pad6)*%
X143855000Y-92165000D03*
%TO.P,U1,5,GPIO5_5*%
%TO.N,Net-(U1-GPIO5)*%
X143855000Y-89625000D03*
%TD*%
D13*
%TO.P,R1,1*%
%TO.N,+5V*%
X141250000Y-104500000D03*
%TO.P,R1,2*%
%TO.N,Net-(U1-GPIO5)*%
X138150000Y-104500000D03*
%TD*%
D14*
%TO.P,SW1,*%
%TO.N,*%
X133718080Y-103337753D03*
X139460336Y-99316982D03*
D15*
%TO.P,SW1,1,1_1*%
%TO.N,GND*%
X133313815Y-100581094D03*
%TO.P,SW1,2,2_2*%
%TO.N,Net-(U1-GPIO5)*%
X137000000Y-98000000D03*
%TD*%
D16*
%TO.P,J1,1,Pin_1_1*%
%TO.N,+5V*%
X163500000Y-98000000D03*
D17*
%TO.P,J1,2,Pin_2_2*%
%TO.N,Net-(J1-Pin_2)*%
X163500000Y-100540000D03*
%TO.P,J1,3,Pin_3_3*%
%TO.N,GND*%
X163500000Y-103080000D03*
%TD*%
D18*
%TO.N,GND*%
X139750000Y-108000000D03*
X163250000Y-108000000D03*
X139750000Y-93000000D03*
X163250000Y-93000000D03*
%TD*%
%TO.N,Net-(U1-GPIO5)*%
D19*
X137000000Y-103350000D02*
X138150000Y-104500000D01*
X137000000Y-98000000D02*
X137000000Y-103350000D01*
%TO.N,+5V*%
X153500000Y-103500000D02*
X142250000Y-103500000D01*
X156250000Y-100750000D02*
X153500000Y-103500000D01*
X156250000Y-98500000D02*
X156250000Y-100750000D01*
X142250000Y-103500000D02*
X141250000Y-104500000D01*
X163000000Y-98500000D02*
X163500000Y-98000000D01*
X157625000Y-89625000D02*
X156250000Y-91000000D01*
X159095000Y-89625000D02*
X157625000Y-89625000D01*
X156250000Y-91000000D02*
X156250000Y-98500000D01*
X156250000Y-98500000D02*
X163000000Y-98500000D01*
%TO.N,Net-(U1-GPIO5)*%
X146000000Y-91250000D02*
X144375000Y-89625000D01*
X146000000Y-95250000D02*
X146000000Y-91250000D01*
X139000000Y-96000000D02*
X145250000Y-96000000D01*
X144375000Y-89625000D02*
X143855000Y-89625000D01*
X145250000Y-96000000D02*
X146000000Y-95250000D01*
X137000000Y-98000000D02*
X139000000Y-96000000D01*
%TO.N,Net-(J1-Pin_2)*%
X159170000Y-102250000D02*
X159095000Y-102325000D01*
X161000000Y-102250000D02*
X159170000Y-102250000D01*
X162710000Y-100540000D02*
X161000000Y-102250000D01*
X163500000Y-100540000D02*
X162710000Y-100540000D01*
%TD*%
M02*
