%TF.GenerationSoftware,KiCad,Pcbnew,10.0.3*%
%TF.CreationDate,2026-07-22T21:37:07+02:00*%
%TF.ProjectId,rgb_lamp,7267625f-6c61-46d7-902e-6b696361645f,rev?*%
%TF.SameCoordinates,Original*%
%TF.FileFunction,Legend,Top*%
%TF.FilePolarity,Positive*%
%FSLAX46Y46*%
G04 Gerber Fmt 4.6, Leading zero omitted, Abs format (unit mm)*
G04 Created by KiCad (PCBNEW 10.0.3) date 2026-07-22 21:37:07*
%MOMM*%
%LPD*%
G01*
G04 APERTURE LIST*
%ADD10C,0.150000*%
%ADD11C,0.127000*%
%ADD12C,0.120000*%
G04 APERTURE END LIST*
D10*
X150988095Y-89954819D02*
X150988095Y-90764342D01*
X150988095Y-90764342D02*
X151035714Y-90859580D01*
X151035714Y-90859580D02*
X151083333Y-90907200D01*
X151083333Y-90907200D02*
X151178571Y-90954819D01*
X151178571Y-90954819D02*
X151369047Y-90954819D01*
X151369047Y-90954819D02*
X151464285Y-90907200D01*
X151464285Y-90907200D02*
X151511904Y-90859580D01*
X151511904Y-90859580D02*
X151559523Y-90764342D01*
X151559523Y-90764342D02*
X151559523Y-89954819D01*
X152559523Y-90954819D02*
X151988095Y-90954819D01*
X152273809Y-90954819D02*
X152273809Y-89954819D01*
X152273809Y-89954819D02*
X152178571Y-90097676D01*
X152178571Y-90097676D02*
X152083333Y-90192914D01*
X152083333Y-90192914D02*
X151988095Y-90240533D01*
X139583333Y-103204819D02*
X139250000Y-102728628D01*
X139011905Y-103204819D02*
X139011905Y-102204819D01*
X139011905Y-102204819D02*
X139392857Y-102204819D01*
X139392857Y-102204819D02*
X139488095Y-102252438D01*
X139488095Y-102252438D02*
X139535714Y-102300057D01*
X139535714Y-102300057D02*
X139583333Y-102395295D01*
X139583333Y-102395295D02*
X139583333Y-102538152D01*
X139583333Y-102538152D02*
X139535714Y-102633390D01*
X139535714Y-102633390D02*
X139488095Y-102681009D01*
X139488095Y-102681009D02*
X139392857Y-102728628D01*
X139392857Y-102728628D02*
X139011905Y-102728628D01*
X140535714Y-103204819D02*
X139964286Y-103204819D01*
X140250000Y-103204819D02*
X140250000Y-102204819D01*
X140250000Y-102204819D02*
X140154762Y-102347676D01*
X140154762Y-102347676D02*
X140059524Y-102442914D01*
X140059524Y-102442914D02*
X139964286Y-102490533D01*
X135261874Y-101765049D02*
X135406208Y-101722117D01*
X135406208Y-101722117D02*
X135601245Y-101585551D01*
X135601245Y-101585551D02*
X135651946Y-101491918D01*
X135651946Y-101491918D02*
X135663640Y-101425597D01*
X135663640Y-101425597D02*
X135648021Y-101320270D01*
X135648021Y-101320270D02*
X135593395Y-101242255D01*
X135593395Y-101242255D02*
X135499761Y-101191554D01*
X135499761Y-101191554D02*
X135433441Y-101179860D01*
X135433441Y-101179860D02*
X135328113Y-101195479D01*
X135328113Y-101195479D02*
X135144771Y-101265724D01*
X135144771Y-101265724D02*
X135039443Y-101281344D01*
X135039443Y-101281344D02*
X134973123Y-101269649D01*
X134973123Y-101269649D02*
X134879489Y-101218948D01*
X134879489Y-101218948D02*
X134824863Y-101140934D01*
X134824863Y-101140934D02*
X134809244Y-101035606D01*
X134809244Y-101035606D02*
X134820938Y-100969286D01*
X134820938Y-100969286D02*
X134871639Y-100875652D01*
X134871639Y-100875652D02*
X135066675Y-100739086D01*
X135066675Y-100739086D02*
X135211010Y-100696154D01*
X135456748Y-100465955D02*
X136225360Y-101148541D01*
X136225360Y-101148541D02*
X135971692Y-100454180D01*
X135971692Y-100454180D02*
X136537418Y-100930035D01*
X136537418Y-100930035D02*
X136158878Y-99974318D01*
X137473592Y-100274520D02*
X137005505Y-100602278D01*
X137239549Y-100438399D02*
X136665972Y-99619247D01*
X136665972Y-99619247D02*
X136669897Y-99790895D01*
X136669897Y-99790895D02*
X136646509Y-99923535D01*
X136646509Y-99923535D02*
X136595808Y-100017169D01*
X161416666Y-95454819D02*
X161416666Y-96169104D01*
X161416666Y-96169104D02*
X161369047Y-96311961D01*
X161369047Y-96311961D02*
X161273809Y-96407200D01*
X161273809Y-96407200D02*
X161130952Y-96454819D01*
X161130952Y-96454819D02*
X161035714Y-96454819D01*
X162416666Y-96454819D02*
X161845238Y-96454819D01*
X162130952Y-96454819D02*
X162130952Y-95454819D01*
X162130952Y-95454819D02*
X162035714Y-95597676D01*
X162035714Y-95597676D02*
X161940476Y-95692914D01*
X161940476Y-95692914D02*
X161845238Y-95740533D01*
%TO.C,U1*%
D11*
X146975000Y-88175000D02*
X142475000Y-88175000D01*
X146975000Y-86875000D02*
X146975000Y-88175000D01*
X155975000Y-86875000D02*
X155975000Y-88175000D01*
X155975000Y-86875000D02*
X146975000Y-86875000D01*
X142475000Y-110875000D02*
X142475000Y-88175000D01*
X160475000Y-88175000D02*
X155975000Y-88175000D01*
X160475000Y-110875000D02*
X160475000Y-88175000D01*
X160475000Y-110875000D02*
X142475000Y-110875000D01*
%TO.C,R1*%
D12*
X140427064Y-105410000D02*
X138972936Y-105410000D01*
X140427064Y-103590000D02*
X138972936Y-103590000D01*
%TO.C,SW1*%
X131478761Y-100767315D02*
X132683272Y-102487534D01*
X134174571Y-104617330D02*
X134467095Y-105035097D01*
X134467095Y-105035097D02*
X134893053Y-104736838D01*
X132977308Y-102000870D02*
X133109231Y-102189275D01*
X132977308Y-102000870D02*
X133419650Y-101691138D01*
X134600529Y-104319070D02*
X134893053Y-104736838D01*
X134320718Y-101060205D02*
X137105834Y-99110045D01*
X138006903Y-98479110D02*
X138449243Y-98169380D01*
X138449243Y-98169380D02*
X138581167Y-98357784D01*
X140072465Y-100487580D02*
X140364989Y-100905347D01*
X140364989Y-100905347D02*
X140790948Y-100607088D01*
X137802615Y-96339305D02*
X139007127Y-98059525D01*
X140498424Y-100189319D02*
X140790948Y-100607088D01*
%TO.C,J1*%
X162120000Y-96620000D02*
X163500000Y-96620000D01*
X162120000Y-98000000D02*
X162120000Y-96620000D01*
X162120000Y-99270000D02*
X162120000Y-104460000D01*
X162120000Y-99270000D02*
X164880000Y-99270000D01*
X162120000Y-104460000D02*
X164880000Y-104460000D01*
X164880000Y-99270000D02*
X164880000Y-104460000D01*
%TD*%
M02*
