%TF.GenerationSoftware,KiCad,Pcbnew,10.0.3*%
%TF.CreationDate,2026-07-22T21:37:07+02:00*%
%TF.ProjectId,rgb_lamp,7267625f-6c61-46d7-902e-6b696361645f,rev?*%
%TF.SameCoordinates,Original*%
%TF.FileFunction,Copper,L2,Bot*%
%TF.FilePolarity,Positive*%
%FSLAX46Y46*%
G04 Gerber Fmt 4.6, Leading zero omitted, Abs format (unit mm)*
G04 Created by KiCad (PCBNEW 10.0.3) date 2026-07-22 21:37:07*
%MOMM*%
%LPD*%
G01*
G04 APERTURE LIST*
%ADD10C,0.200000*%
%TA.AperFunction,NonConductor*%
%ADD11C,0.200000*%
%TD*%
%ADD12C,0.250000*%
%TA.AperFunction,NonConductor*%
%ADD13C,0.250000*%
%TD*%
%TA.AperFunction,ComponentPad*%
%ADD14C,1.348000*%
%TD*%
%TA.AperFunction,ComponentPad*%
%ADD15C,2.100000*%
%TD*%
%TA.AperFunction,ComponentPad*%
%ADD16C,1.750000*%
%TD*%
%TA.AperFunction,ComponentPad*%
%ADD17R,1.700000X1.700000*%
%TD*%
%TA.AperFunction,ComponentPad*%
%ADD18C,1.700000*%
%TD*%
%TA.AperFunction,ViaPad*%
%ADD19C,5.000000*%
%TD*%
G04 APERTURE END LIST*
D10*
D11*
X132546993Y-107093409D02*
X132404136Y-107141028D01*
X132404136Y-107141028D02*
X132356517Y-107188647D01*
X132356517Y-107188647D02*
X132308898Y-107283885D01*
X132308898Y-107283885D02*
X132308898Y-107426742D01*
X132308898Y-107426742D02*
X132356517Y-107521980D01*
X132356517Y-107521980D02*
X132404136Y-107569600D01*
X132404136Y-107569600D02*
X132499374Y-107617219D01*
X132499374Y-107617219D02*
X132880326Y-107617219D01*
X132880326Y-107617219D02*
X132880326Y-106617219D01*
X132880326Y-106617219D02*
X132546993Y-106617219D01*
X132546993Y-106617219D02*
X132451755Y-106664838D01*
X132451755Y-106664838D02*
X132404136Y-106712457D01*
X132404136Y-106712457D02*
X132356517Y-106807695D01*
X132356517Y-106807695D02*
X132356517Y-106902933D01*
X132356517Y-106902933D02*
X132404136Y-106998171D01*
X132404136Y-106998171D02*
X132451755Y-107045790D01*
X132451755Y-107045790D02*
X132546993Y-107093409D01*
X132546993Y-107093409D02*
X132880326Y-107093409D01*
X132023183Y-106617219D02*
X131451755Y-106617219D01*
X131737469Y-107617219D02*
X131737469Y-106617219D01*
X131118421Y-107617219D02*
X131118421Y-106617219D01*
X131118421Y-106617219D02*
X130785088Y-107331504D01*
X130785088Y-107331504D02*
X130451755Y-106617219D01*
X130451755Y-106617219D02*
X130451755Y-107617219D01*
X130250000Y-110500000D02*
X132750000Y-110500000D01*
X132750000Y-110500000D02*
X132750000Y-108250000D01*
X130250000Y-108250000D02*
X132750000Y-108250000D01*
X130250000Y-110500000D02*
X130250000Y-108250000D01*
D12*
D13*
X132192669Y-109197952D02*
X131954574Y-109864619D01*
X131954574Y-109864619D02*
X131716479Y-109197952D01*
X130811717Y-109864619D02*
X131383145Y-109864619D01*
X131097431Y-109864619D02*
X131097431Y-108864619D01*
X131097431Y-108864619D02*
X131192669Y-109007476D01*
X131192669Y-109007476D02*
X131287907Y-109102714D01*
X131287907Y-109102714D02*
X131383145Y-109150333D01*
D14*
%TO.P,U1,5V,5V_5V*%
%TO.N,+5V*%
X159095000Y-89625000D03*
%TO.P,U1,G,GND_G*%
%TO.N,GND*%
X159095000Y-92165000D03*
%TO.P,U1,3.3,3V3_3.3*%
%TO.N,unconnected-(U1-3V3-Pad3.3)*%
X159095000Y-94705000D03*
%TO.P,U1,4,GPIO4_4*%
%TO.N,unconnected-(U1-GPIO4-Pad4)*%
X159095000Y-97245000D03*
%TO.P,U1,3,GPIO3_3*%
%TO.N,unconnected-(U1-GPIO3-Pad3)*%
X159095000Y-99785000D03*
%TO.P,U1,2,GPIO2_2*%
%TO.N,Net-(J1-Pin_2)*%
X159095000Y-102325000D03*
%TO.P,U1,1,GPIO1_1*%
%TO.N,unconnected-(U1-GPIO1-Pad1)*%
X159095000Y-104865000D03*
%TO.P,U1,0,GPIO0_0*%
%TO.N,unconnected-(U1-GPIO0-Pad0)*%
X159095000Y-107405000D03*
%TO.P,U1,21,GPIO21_21*%
%TO.N,unconnected-(U1-GPIO21-Pad21)*%
X143855000Y-107405000D03*
%TO.P,U1,20,GPIO20_20*%
%TO.N,unconnected-(U1-GPIO20-Pad20)*%
X143855000Y-104865000D03*
%TO.P,U1,10,GPIO10_10*%
%TO.N,unconnected-(U1-GPIO10-Pad10)*%
X143855000Y-102325000D03*
%TO.P,U1,9,GPIO9_9*%
%TO.N,unconnected-(U1-GPIO9-Pad9)*%
X143855000Y-99785000D03*
%TO.P,U1,8,GPIO8_8*%
%TO.N,unconnected-(U1-GPIO8-Pad8)*%
X143855000Y-97245000D03*
%TO.P,U1,7,GPIO7_7*%
%TO.N,unconnected-(U1-GPIO7-Pad7)*%
X143855000Y-94705000D03*
%TO.P,U1,6,GPIO6_6*%
%TO.N,unconnected-(U1-GPIO6-Pad6)*%
X143855000Y-92165000D03*
%TO.P,U1,5,GPIO5_5*%
%TO.N,Net-(U1-GPIO5)*%
X143855000Y-89625000D03*
%TD*%
D15*
%TO.P,SW1,*%
%TO.N,*%
X133718080Y-103337753D03*
X139460336Y-99316982D03*
D16*
%TO.P,SW1,1,1_1*%
%TO.N,GND*%
X133313815Y-100581094D03*
%TO.P,SW1,2,2_2*%
%TO.N,Net-(U1-GPIO5)*%
X137000000Y-98000000D03*
%TD*%
D17*
%TO.P,J1,1,Pin_1_1*%
%TO.N,+5V*%
X163500000Y-98000000D03*
D18*
%TO.P,J1,2,Pin_2_2*%
%TO.N,Net-(J1-Pin_2)*%
X163500000Y-100540000D03*
%TO.P,J1,3,Pin_3_3*%
%TO.N,GND*%
X163500000Y-103080000D03*
%TD*%
D19*
%TO.N,GND*%
X139750000Y-108000000D03*
X163250000Y-108000000D03*
X139750000Y-93000000D03*
X163250000Y-93000000D03*
%TD*%
%TA.AperFunction,Conductor*%
%TO.N,GND*%
G36*
X142862274Y-88770185D02*
G01*
X142908029Y-88822989D01*
X142917973Y-88892147D01*
X142895553Y-88947385D01*
X142850479Y-89009424D01*
X142766547Y-89174147D01*
X142766546Y-89174150D01*
X142709419Y-89349969D01*
X142680500Y-89532559D01*
X142680500Y-89717440D01*
X142709419Y-89900030D01*
X142766546Y-90075849D01*
X142766547Y-90075852D01*
X142850479Y-90240575D01*
X142959135Y-90390129D01*
X142959139Y-90390134D01*
X143089865Y-90520860D01*
X143089870Y-90520864D01*
X143220318Y-90615639D01*
X143239428Y-90629523D01*
X143347106Y-90684388D01*
X143404147Y-90713452D01*
X143404150Y-90713453D01*
X143492059Y-90742016D01*
X143579971Y-90770580D01*
X143590150Y-90772192D01*
X143592263Y-90772527D01*
X143655397Y-90802457D01*
X143692328Y-90861769D01*
X143691330Y-90931631D01*
X143652719Y-90989864D01*
X143592263Y-91017473D01*
X143579969Y-91019420D01*
X143404150Y-91076546D01*
X143404147Y-91076547D01*
X143239424Y-91160479D01*
X143089870Y-91269135D01*
X143089865Y-91269139D01*
X142959139Y-91399865D01*
X142959135Y-91399870D01*
X142850479Y-91549424D01*
X142766547Y-91714147D01*
X142766546Y-91714150D01*
X142709419Y-91889969D01*
X142680500Y-92072559D01*
X142680500Y-92257440D01*
X142709419Y-92440030D01*
X142766546Y-92615849D01*
X142766547Y-92615852D01*
X142850479Y-92780575D01*
X142959135Y-92930129D01*
X142959139Y-92930134D01*
X143089865Y-93060860D01*
X143089870Y-93060864D01*
X143218431Y-93154268D01*
X143239428Y-93169523D01*
X143347106Y-93224388D01*
X143404147Y-93253452D01*
X143404150Y-93253453D01*
X143492059Y-93282016D01*
X143579971Y-93310580D01*
X143590150Y-93312192D01*
X143592263Y-93312527D01*
X143655397Y-93342457D01*
X143692328Y-93401769D01*
X143691330Y-93471631D01*
X143652719Y-93529864D01*
X143592263Y-93557473D01*
X143579969Y-93559420D01*
X143404150Y-93616546D01*
X143404147Y-93616547D01*
X143239424Y-93700479D01*
X143089870Y-93809135D01*
X143089865Y-93809139D01*
X142959139Y-93939865D01*
X142959135Y-93939870D01*
X142850479Y-94089424D01*
X142766547Y-94254147D01*
X142766546Y-94254150D01*
X142709419Y-94429969D01*
X142680500Y-94612559D01*
X142680500Y-94797440D01*
X142709419Y-94980030D01*
X142766546Y-95155849D01*
X142766547Y-95155852D01*
X142850479Y-95320575D01*
X142959135Y-95470129D01*
X142959139Y-95470134D01*
X143089865Y-95600860D01*
X143089870Y-95600864D01*
X143220318Y-95695639D01*
X143239428Y-95709523D01*
X143347106Y-95764388D01*
X143404147Y-95793452D01*
X143404150Y-95793453D01*
X143492059Y-95822016D01*
X143579971Y-95850580D01*
X143590150Y-95852192D01*
X143592263Y-95852527D01*
X143655397Y-95882457D01*
X143692328Y-95941769D01*
X143691330Y-96011631D01*
X143652719Y-96069864D01*
X143592263Y-96097473D01*
X143579969Y-96099420D01*
X143404150Y-96156546D01*
X143404147Y-96156547D01*
X143239424Y-96240479D01*
X143089870Y-96349135D01*
X143089865Y-96349139D01*
X142959139Y-96479865D01*
X142959135Y-96479870D01*
X142850479Y-96629424D01*
X142766547Y-96794147D01*
X142766546Y-96794150D01*
X142709419Y-96969969D01*
X142680500Y-97152559D01*
X142680500Y-97337440D01*
X142709419Y-97520030D01*
X142766546Y-97695849D01*
X142766547Y-97695852D01*
X142850479Y-97860575D01*
X142959135Y-98010129D01*
X142959139Y-98010134D01*
X143089865Y-98140860D01*
X143089870Y-98140864D01*
X143209878Y-98228054D01*
X143239428Y-98249523D01*
X143347106Y-98304388D01*
X143404147Y-98333452D01*
X143404150Y-98333453D01*
X143492059Y-98362016D01*
X143579971Y-98390580D01*
X143590150Y-98392192D01*
X143592263Y-98392527D01*
X143655397Y-98422457D01*
X143692328Y-98481769D01*
X143691330Y-98551631D01*
X143652719Y-98609864D01*
X143592263Y-98637473D01*
X143579969Y-98639420D01*
X143404150Y-98696546D01*
X143404147Y-98696547D01*
X143239424Y-98780479D01*
X143089870Y-98889135D01*
X143089865Y-98889139D01*
X142959139Y-99019865D01*
X142959135Y-99019870D01*
X142850479Y-99169424D01*
X142766547Y-99334147D01*
X142766546Y-99334150D01*
X142709419Y-99509969D01*
X142680500Y-99692559D01*
X142680500Y-99877440D01*
X142709419Y-100060030D01*
X142766546Y-100235849D01*
X142766547Y-100235852D01*
X142850479Y-100400575D01*
X142959135Y-100550129D01*
X142959139Y-100550134D01*
X143089865Y-100680860D01*
X143089870Y-100680864D01*
X143215526Y-100772157D01*
X143239428Y-100789523D01*
X143313562Y-100827296D01*
X143404147Y-100873452D01*
X143404150Y-100873453D01*
X143492059Y-100902016D01*
X143579971Y-100930580D01*
X143590150Y-100932192D01*
X143592263Y-100932527D01*
X143655397Y-100962457D01*
X143692328Y-101021769D01*
X143691330Y-101091631D01*
X143652719Y-101149864D01*
X143592263Y-101177473D01*
X143579969Y-101179420D01*
X143404150Y-101236546D01*
X143404147Y-101236547D01*
X143239424Y-101320479D01*
X143089870Y-101429135D01*
X143089865Y-101429139D01*
X142959139Y-101559865D01*
X142959135Y-101559870D01*
X142850479Y-101709424D01*
X142766547Y-101874147D01*
X142766546Y-101874150D01*
X142709419Y-102049969D01*
X142680500Y-102232559D01*
X142680500Y-102417440D01*
X142709419Y-102600030D01*
X142766546Y-102775849D01*
X142766547Y-102775852D01*
X142823184Y-102887007D01*
X142836217Y-102912586D01*
X142850479Y-102940575D01*
X142959135Y-103090129D01*
X142959139Y-103090134D01*
X143089865Y-103220860D01*
X143089870Y-103220864D01*
X143220318Y-103315639D01*
X143239428Y-103329523D01*
X143347106Y-103384388D01*
X143404147Y-103413452D01*
X143404150Y-103413453D01*
X143466016Y-103433554D01*
X143579971Y-103470580D01*
X143590150Y-103472192D01*
X143592263Y-103472527D01*
X143655397Y-103502457D01*
X143692328Y-103561769D01*
X143691330Y-103631631D01*
X143652719Y-103689864D01*
X143592263Y-103717473D01*
X143579969Y-103719420D01*
X143404150Y-103776546D01*
X143404147Y-103776547D01*
X143239424Y-103860479D01*
X143089870Y-103969135D01*
X143089865Y-103969139D01*
X142959139Y-104099865D01*
X142959135Y-104099870D01*
X142850479Y-104249424D01*
X142766547Y-104414147D01*
X142766546Y-104414150D01*
X142709419Y-104589969D01*
X142680500Y-104772559D01*
X142680500Y-104957440D01*
X142709419Y-105140030D01*
X142766546Y-105315849D01*
X142766547Y-105315852D01*
X142850479Y-105480575D01*
X142959135Y-105630129D01*
X142959139Y-105630134D01*
X143089865Y-105760860D01*
X143089870Y-105760864D01*
X143220318Y-105855639D01*
X143239428Y-105869523D01*
X143347106Y-105924388D01*
X143404147Y-105953452D01*
X143404150Y-105953453D01*
X143492059Y-105982016D01*
X143579971Y-106010580D01*
X143590150Y-106012192D01*
X143592263Y-106012527D01*
X143655397Y-106042457D01*
X143692328Y-106101769D01*
X143691330Y-106171631D01*
X143652719Y-106229864D01*
X143592263Y-106257473D01*
X143579969Y-106259420D01*
X143404150Y-106316546D01*
X143404147Y-106316547D01*
X143239424Y-106400479D01*
X143089870Y-106509135D01*
X143089865Y-106509139D01*
X142959139Y-106639865D01*
X142959135Y-106639870D01*
X142850479Y-106789424D01*
X142766547Y-106954147D01*
X142766546Y-106954150D01*
X142709419Y-107129969D01*
X142680500Y-107312559D01*
X142680500Y-107497440D01*
X142709419Y-107680030D01*
X142766546Y-107855849D01*
X142766547Y-107855852D01*
X142850479Y-108020575D01*
X142959135Y-108170129D01*
X142959139Y-108170134D01*
X143089865Y-108300860D01*
X143089870Y-108300864D01*
X143154561Y-108347864D01*
X143239428Y-108409523D01*
X143347106Y-108464388D01*
X143404147Y-108493452D01*
X143404150Y-108493453D01*
X143579969Y-108550580D01*
X143762560Y-108579500D01*
X143762565Y-108579500D01*
X143947440Y-108579500D01*
X144130030Y-108550580D01*
X144305849Y-108493453D01*
X144305852Y-108493452D01*
X144470572Y-108409523D01*
X144620136Y-108300859D01*
X144750859Y-108170136D01*
X144859523Y-108020572D01*
X144943452Y-107855852D01*
X144943453Y-107855849D01*
X145000580Y-107680030D01*
X145029500Y-107497440D01*
X145029500Y-107312559D01*
X145000580Y-107129969D01*
X144943453Y-106954150D01*
X144943452Y-106954147D01*
X144914388Y-106897106D01*
X144859523Y-106789428D01*
X144845639Y-106770318D01*
X144750864Y-106639870D01*
X144750860Y-106639865D01*
X144620134Y-106509139D01*
X144620129Y-106509135D01*
X144470575Y-106400479D01*
X144470574Y-106400478D01*
X144470572Y-106400477D01*
X144417799Y-106373588D01*
X144305852Y-106316547D01*
X144305849Y-106316546D01*
X144130030Y-106259420D01*
X144117737Y-106257473D01*
X144054602Y-106227544D01*
X144017671Y-106168232D01*
X144018669Y-106098370D01*
X144057279Y-106040137D01*
X144117737Y-106012527D01*
X144119508Y-106012246D01*
X144130029Y-106010580D01*
X144305852Y-105953452D01*
X144470572Y-105869523D01*
X144620136Y-105760859D01*
X144750859Y-105630136D01*
X144859523Y-105480572D01*
X144943452Y-105315852D01*
X145000580Y-105140029D01*
X145029500Y-104957440D01*
X145029500Y-104772559D01*
X145000580Y-104589969D01*
X144943453Y-104414150D01*
X144943452Y-104414147D01*
X144901134Y-104331095D01*
X144859523Y-104249428D01*
X144820175Y-104195270D01*
X144750864Y-104099870D01*
X144750860Y-104099865D01*
X144620134Y-103969139D01*
X144620129Y-103969135D01*
X144470575Y-103860479D01*
X144470574Y-103860478D01*
X144470572Y-103860477D01*
X144417799Y-103833588D01*
X144305852Y-103776547D01*
X144305849Y-103776546D01*
X144130030Y-103719420D01*
X144117737Y-103717473D01*
X144054602Y-103687544D01*
X144017671Y-103628232D01*
X144018669Y-103558370D01*
X144057279Y-103500137D01*
X144117737Y-103472527D01*
X144119508Y-103472246D01*
X144130029Y-103470580D01*
X144305852Y-103413452D01*
X144470572Y-103329523D01*
X144620136Y-103220859D01*
X144750859Y-103090136D01*
X144859523Y-102940572D01*
X144943452Y-102775852D01*
X144947345Y-102763872D01*
X145000580Y-102600030D01*
X145029500Y-102417440D01*
X145029500Y-102232559D01*
X145000580Y-102049969D01*
X144943453Y-101874150D01*
X144943452Y-101874147D01*
X144887961Y-101765241D01*
X144859523Y-101709428D01*
X144801730Y-101629882D01*
X144750864Y-101559870D01*
X144750860Y-101559865D01*
X144620134Y-101429139D01*
X144620129Y-101429135D01*
X144470575Y-101320479D01*
X144470574Y-101320478D01*
X144470572Y-101320477D01*
X144417799Y-101293588D01*
X144305852Y-101236547D01*
X144305849Y-101236546D01*
X144130030Y-101179420D01*
X144117737Y-101177473D01*
X144054602Y-101147544D01*
X144017671Y-101088232D01*
X144018669Y-101018370D01*
X144057279Y-100960137D01*
X144117737Y-100932527D01*
X144119508Y-100932246D01*
X144130029Y-100930580D01*
X144305852Y-100873452D01*
X144470572Y-100789523D01*
X144620136Y-100680859D01*
X144750859Y-100550136D01*
X144859523Y-100400572D01*
X144943452Y-100235852D01*
X144959976Y-100184996D01*
X145000580Y-100060030D01*
X145029500Y-99877440D01*
X145029500Y-99692559D01*
X145000580Y-99509969D01*
X144943453Y-99334150D01*
X144943452Y-99334147D01*
X144891908Y-99232987D01*
X144859523Y-99169428D01*
X144803507Y-99092328D01*
X144750864Y-99019870D01*
X144750860Y-99019865D01*
X144620134Y-98889139D01*
X144620129Y-98889135D01*
X144470575Y-98780479D01*
X144470574Y-98780478D01*
X144470572Y-98780477D01*
X144417799Y-98753588D01*
X144305852Y-98696547D01*
X144305849Y-98696546D01*
X144130030Y-98639420D01*
X144117737Y-98637473D01*
X144054602Y-98607544D01*
X144017671Y-98548232D01*
X144018669Y-98478370D01*
X144057279Y-98420137D01*
X144117737Y-98392527D01*
X144119508Y-98392246D01*
X144130029Y-98390580D01*
X144305852Y-98333452D01*
X144470572Y-98249523D01*
X144620136Y-98140859D01*
X144750859Y-98010136D01*
X144859523Y-97860572D01*
X144943452Y-97695852D01*
X145000580Y-97520029D01*
X145008188Y-97471993D01*
X145029500Y-97337440D01*
X145029500Y-97152559D01*
X145000580Y-96969969D01*
X144943453Y-96794150D01*
X144943452Y-96794147D01*
X144898641Y-96706202D01*
X144859523Y-96629428D01*
X144845639Y-96610318D01*
X144750864Y-96479870D01*
X144750860Y-96479865D01*
X144620134Y-96349139D01*
X144620129Y-96349135D01*
X144470575Y-96240479D01*
X144470574Y-96240478D01*
X144470572Y-96240477D01*
X144417799Y-96213588D01*
X144305852Y-96156547D01*
X144305849Y-96156546D01*
X144130030Y-96099420D01*
X144117737Y-96097473D01*
X144054602Y-96067544D01*
X144017671Y-96008232D01*
X144018669Y-95938370D01*
X144057279Y-95880137D01*
X144117737Y-95852527D01*
X144119508Y-95852246D01*
X144130029Y-95850580D01*
X144305852Y-95793452D01*
X144470572Y-95709523D01*
X144620136Y-95600859D01*
X144750859Y-95470136D01*
X144859523Y-95320572D01*
X144943452Y-95155852D01*
X145000580Y-94980029D01*
X145029500Y-94797440D01*
X145029500Y-94612559D01*
X145000580Y-94429969D01*
X144943453Y-94254150D01*
X144943452Y-94254147D01*
X144914388Y-94197106D01*
X144859523Y-94089428D01*
X144845639Y-94070318D01*
X144750864Y-93939870D01*
X144750860Y-93939865D01*
X144620134Y-93809139D01*
X144620129Y-93809135D01*
X144470575Y-93700479D01*
X144470574Y-93700478D01*
X144470572Y-93700477D01*
X144417799Y-93673588D01*
X144305852Y-93616547D01*
X144305849Y-93616546D01*
X144130030Y-93559420D01*
X144117737Y-93557473D01*
X144054602Y-93527544D01*
X144017671Y-93468232D01*
X144018669Y-93398370D01*
X144057279Y-93340137D01*
X144117737Y-93312527D01*
X144119508Y-93312246D01*
X144130029Y-93310580D01*
X144305852Y-93253452D01*
X144470572Y-93169523D01*
X144620136Y-93060859D01*
X144750859Y-92930136D01*
X144859523Y-92780572D01*
X144943452Y-92615852D01*
X145000580Y-92440029D01*
X145018464Y-92327114D01*
X145029500Y-92257440D01*
X145029500Y-92072559D01*
X145000580Y-91889969D01*
X144943453Y-91714150D01*
X144943452Y-91714147D01*
X144903614Y-91635962D01*
X144859523Y-91549428D01*
X144841814Y-91525053D01*
X144750864Y-91399870D01*
X144750860Y-91399865D01*
X144620134Y-91269139D01*
X144620129Y-91269135D01*
X144470575Y-91160479D01*
X144470574Y-91160478D01*
X144470572Y-91160477D01*
X144417799Y-91133588D01*
X144305852Y-91076547D01*
X144305849Y-91076546D01*
X144130030Y-91019420D01*
X144117737Y-91017473D01*
X144054602Y-90987544D01*
X144017671Y-90928232D01*
X144018669Y-90858370D01*
X144057279Y-90800137D01*
X144117737Y-90772527D01*
X144119508Y-90772246D01*
X144130029Y-90770580D01*
X144305852Y-90713452D01*
X144470572Y-90629523D01*
X144620136Y-90520859D01*
X144750859Y-90390136D01*
X144859523Y-90240572D01*
X144943452Y-90075852D01*
X145000580Y-89900029D01*
X145029500Y-89717440D01*
X145029500Y-89532559D01*
X145000580Y-89349969D01*
X144943453Y-89174150D01*
X144943452Y-89174147D01*
X144914388Y-89117106D01*
X144859523Y-89009428D01*
X144853647Y-89001340D01*
X144814447Y-88947385D01*
X144790967Y-88881579D01*
X144806793Y-88813525D01*
X144856898Y-88764830D01*
X144914765Y-88750500D01*
X158035235Y-88750500D01*
X158102274Y-88770185D01*
X158148029Y-88822989D01*
X158157973Y-88892147D01*
X158135553Y-88947385D01*
X158090479Y-89009424D01*
X158006547Y-89174147D01*
X158006546Y-89174150D01*
X157949419Y-89349969D01*
X157920500Y-89532559D01*
X157920500Y-89717440D01*
X157949419Y-89900030D01*
X158006546Y-90075849D01*
X158006547Y-90075852D01*
X158090479Y-90240575D01*
X158199135Y-90390129D01*
X158199139Y-90390134D01*
X158329865Y-90520860D01*
X158329870Y-90520864D01*
X158460318Y-90615639D01*
X158479428Y-90629523D01*
X158587106Y-90684388D01*
X158644147Y-90713452D01*
X158644150Y-90713453D01*
X158819970Y-90770580D01*
X158833860Y-90772780D01*
X158896995Y-90802709D01*
X158933927Y-90862020D01*
X158932929Y-90931883D01*
X158894320Y-90990115D01*
X158833864Y-91017726D01*
X158820088Y-91019908D01*
X158644338Y-91077013D01*
X158479692Y-91160903D01*
X158479688Y-91160906D01*
X158459283Y-91175729D01*
X158459283Y-91175730D01*
X159030910Y-91747356D01*
X158932886Y-91773622D01*
X158837114Y-91828916D01*
X158758916Y-91907114D01*
X158703622Y-92002886D01*
X158677356Y-92100909D01*
X158105730Y-91529283D01*
X158105729Y-91529283D01*
X158090906Y-91549688D01*
X158090903Y-91549692D01*
X158007013Y-91714338D01*
X157949907Y-91890091D01*
X157921000Y-92072604D01*
X157921000Y-92257395D01*
X157949907Y-92439908D01*
X158007014Y-92615664D01*
X158090900Y-92780303D01*
X158090903Y-92780307D01*
X158105730Y-92800715D01*
X158105730Y-92800716D01*
X158677356Y-92229090D01*
X158703622Y-92327114D01*
X158758916Y-92422886D01*
X158837114Y-92501084D01*
X158932886Y-92556378D01*
X159030909Y-92582643D01*
X158459283Y-93154268D01*
X158459283Y-93154269D01*
X158479686Y-93169092D01*
X158644338Y-93252986D01*
X158820087Y-93310091D01*
X158833857Y-93312272D01*
X158896993Y-93342200D01*
X158933926Y-93401510D01*
X158932930Y-93471373D01*
X158894322Y-93529607D01*
X158833867Y-93557218D01*
X158819971Y-93559419D01*
X158644150Y-93616546D01*
X158644147Y-93616547D01*
X158479424Y-93700479D01*
X158329870Y-93809135D01*
X158329865Y-93809139D01*
X158199139Y-93939865D01*
X158199135Y-93939870D01*
X158090479Y-94089424D01*
X158006547Y-94254147D01*
X158006546Y-94254150D01*
X157949419Y-94429969D01*
X157920500Y-94612559D01*
X157920500Y-94797440D01*
X157949419Y-94980030D01*
X158006546Y-95155849D01*
X158006547Y-95155852D01*
X158090479Y-95320575D01*
X158199135Y-95470129D01*
X158199139Y-95470134D01*
X158329865Y-95600860D01*
X158329870Y-95600864D01*
X158460318Y-95695639D01*
X158479428Y-95709523D01*
X158587106Y-95764388D01*
X158644147Y-95793452D01*
X158644150Y-95793453D01*
X158732059Y-95822016D01*
X158819971Y-95850580D01*
X158830150Y-95852192D01*
X158832263Y-95852527D01*
X158895397Y-95882457D01*
X158932328Y-95941769D01*
X158931330Y-96011631D01*
X158892719Y-96069864D01*
X158832263Y-96097473D01*
X158819969Y-96099420D01*
X158644150Y-96156546D01*
X158644147Y-96156547D01*
X158479424Y-96240479D01*
X158329870Y-96349135D01*
X158329865Y-96349139D01*
X158199139Y-96479865D01*
X158199135Y-96479870D01*
X158090479Y-96629424D01*
X158006547Y-96794147D01*
X158006546Y-96794150D01*
X157949419Y-96969969D01*
X157920500Y-97152559D01*
X157920500Y-97337440D01*
X157949419Y-97520030D01*
X158006546Y-97695849D01*
X158006547Y-97695852D01*
X158090479Y-97860575D01*
X158199135Y-98010129D01*
X158199139Y-98010134D01*
X158329865Y-98140860D01*
X158329870Y-98140864D01*
X158449878Y-98228054D01*
X158479428Y-98249523D01*
X158587106Y-98304388D01*
X158644147Y-98333452D01*
X158644150Y-98333453D01*
X158732059Y-98362016D01*
X158819971Y-98390580D01*
X158830150Y-98392192D01*
X158832263Y-98392527D01*
X158895397Y-98422457D01*
X158932328Y-98481769D01*
X158931330Y-98551631D01*
X158892719Y-98609864D01*
X158832263Y-98637473D01*
X158819969Y-98639420D01*
X158644150Y-98696546D01*
X158644147Y-98696547D01*
X158479424Y-98780479D01*
X158329870Y-98889135D01*
X158329865Y-98889139D01*
X158199139Y-99019865D01*
X158199135Y-99019870D01*
X158090479Y-99169424D01*
X158006547Y-99334147D01*
X158006546Y-99334150D01*
X157949419Y-99509969D01*
X157920500Y-99692559D01*
X157920500Y-99877440D01*
X157949419Y-100060030D01*
X158006546Y-100235849D01*
X158006547Y-100235852D01*
X158090479Y-100400575D01*
X158199135Y-100550129D01*
X158199139Y-100550134D01*
X158329865Y-100680860D01*
X158329870Y-100680864D01*
X158455526Y-100772157D01*
X158479428Y-100789523D01*
X158553562Y-100827296D01*
X158644147Y-100873452D01*
X158644150Y-100873453D01*
X158732059Y-100902016D01*
X158819971Y-100930580D01*
X158830150Y-100932192D01*
X158832263Y-100932527D01*
X158895397Y-100962457D01*
X158932328Y-101021769D01*
X158931330Y-101091631D01*
X158892719Y-101149864D01*
X158832263Y-101177473D01*
X158819969Y-101179420D01*
X158644150Y-101236546D01*
X158644147Y-101236547D01*
X158479424Y-101320479D01*
X158329870Y-101429135D01*
X158329865Y-101429139D01*
X158199139Y-101559865D01*
X158199135Y-101559870D01*
X158090479Y-101709424D01*
X158006547Y-101874147D01*
X158006546Y-101874150D01*
X157949419Y-102049969D01*
X157920500Y-102232559D01*
X157920500Y-102417440D01*
X157949419Y-102600030D01*
X158006546Y-102775849D01*
X158006547Y-102775852D01*
X158063184Y-102887007D01*
X158076217Y-102912586D01*
X158090479Y-102940575D01*
X158199135Y-103090129D01*
X158199139Y-103090134D01*
X158329865Y-103220860D01*
X158329870Y-103220864D01*
X158460318Y-103315639D01*
X158479428Y-103329523D01*
X158587106Y-103384388D01*
X158644147Y-103413452D01*
X158644150Y-103413453D01*
X158706016Y-103433554D01*
X158819971Y-103470580D01*
X158830150Y-103472192D01*
X158832263Y-103472527D01*
X158895397Y-103502457D01*
X158932328Y-103561769D01*
X158931330Y-103631631D01*
X158892719Y-103689864D01*
X158832263Y-103717473D01*
X158819969Y-103719420D01*
X158644150Y-103776546D01*
X158644147Y-103776547D01*
X158479424Y-103860479D01*
X158329870Y-103969135D01*
X158329865Y-103969139D01*
X158199139Y-104099865D01*
X158199135Y-104099870D01*
X158090479Y-104249424D01*
X158006547Y-104414147D01*
X158006546Y-104414150D01*
X157949419Y-104589969D01*
X157920500Y-104772559D01*
X157920500Y-104957440D01*
X157949419Y-105140030D01*
X158006546Y-105315849D01*
X158006547Y-105315852D01*
X158090479Y-105480575D01*
X158199135Y-105630129D01*
X158199139Y-105630134D01*
X158329865Y-105760860D01*
X158329870Y-105760864D01*
X158460318Y-105855639D01*
X158479428Y-105869523D01*
X158587106Y-105924388D01*
X158644147Y-105953452D01*
X158644150Y-105953453D01*
X158732059Y-105982016D01*
X158819971Y-106010580D01*
X158830150Y-106012192D01*
X158832263Y-106012527D01*
X158895397Y-106042457D01*
X158932328Y-106101769D01*
X158931330Y-106171631D01*
X158892719Y-106229864D01*
X158832263Y-106257473D01*
X158819969Y-106259420D01*
X158644150Y-106316546D01*
X158644147Y-106316547D01*
X158479424Y-106400479D01*
X158329870Y-106509135D01*
X158329865Y-106509139D01*
X158199139Y-106639865D01*
X158199135Y-106639870D01*
X158090479Y-106789424D01*
X158006547Y-106954147D01*
X158006546Y-106954150D01*
X157949419Y-107129969D01*
X157920500Y-107312559D01*
X157920500Y-107497440D01*
X157949419Y-107680030D01*
X158006546Y-107855849D01*
X158006547Y-107855852D01*
X158090479Y-108020575D01*
X158199135Y-108170129D01*
X158199139Y-108170134D01*
X158329865Y-108300860D01*
X158329870Y-108300864D01*
X158394561Y-108347864D01*
X158479428Y-108409523D01*
X158587106Y-108464388D01*
X158644147Y-108493452D01*
X158644150Y-108493453D01*
X158819969Y-108550580D01*
X159002560Y-108579500D01*
X159002565Y-108579500D01*
X159187440Y-108579500D01*
X159370030Y-108550580D01*
X159545849Y-108493453D01*
X159545852Y-108493452D01*
X159710572Y-108409523D01*
X159860136Y-108300859D01*
X159990859Y-108170136D01*
X160099523Y-108020572D01*
X160183452Y-107855852D01*
X160183453Y-107855849D01*
X160240580Y-107680030D01*
X160269500Y-107497440D01*
X160269500Y-107312559D01*
X160240580Y-107129969D01*
X160183453Y-106954150D01*
X160183452Y-106954147D01*
X160154388Y-106897106D01*
X160099523Y-106789428D01*
X160085639Y-106770318D01*
X159990864Y-106639870D01*
X159990860Y-106639865D01*
X159860134Y-106509139D01*
X159860129Y-106509135D01*
X159710575Y-106400479D01*
X159710574Y-106400478D01*
X159710572Y-106400477D01*
X159657799Y-106373588D01*
X159545852Y-106316547D01*
X159545849Y-106316546D01*
X159370030Y-106259420D01*
X159357737Y-106257473D01*
X159294602Y-106227544D01*
X159257671Y-106168232D01*
X159258669Y-106098370D01*
X159297279Y-106040137D01*
X159357737Y-106012527D01*
X159359508Y-106012246D01*
X159370029Y-106010580D01*
X159545852Y-105953452D01*
X159710572Y-105869523D01*
X159860136Y-105760859D01*
X159990859Y-105630136D01*
X160099523Y-105480572D01*
X160183452Y-105315852D01*
X160240580Y-105140029D01*
X160269500Y-104957440D01*
X160269500Y-104772559D01*
X160240580Y-104589969D01*
X160183453Y-104414150D01*
X160183452Y-104414147D01*
X160141134Y-104331095D01*
X160099523Y-104249428D01*
X160096699Y-104245541D01*
X160078794Y-104220896D01*
X159990864Y-104099869D01*
X159860134Y-103969139D01*
X159860129Y-103969135D01*
X159710575Y-103860479D01*
X159710574Y-103860478D01*
X159710572Y-103860477D01*
X159657799Y-103833588D01*
X159545852Y-103776547D01*
X159545849Y-103776546D01*
X159370030Y-103719420D01*
X159357737Y-103717473D01*
X159294602Y-103687544D01*
X159257671Y-103628232D01*
X159258669Y-103558370D01*
X159297279Y-103500137D01*
X159357737Y-103472527D01*
X159359508Y-103472246D01*
X159370029Y-103470580D01*
X159545852Y-103413452D01*
X159710572Y-103329523D01*
X159860136Y-103220859D01*
X159990859Y-103090136D01*
X160099523Y-102940572D01*
X160183452Y-102775852D01*
X160187345Y-102763872D01*
X160240580Y-102600030D01*
X160269500Y-102417440D01*
X160269500Y-102232559D01*
X160240580Y-102049969D01*
X160183453Y-101874150D01*
X160183452Y-101874147D01*
X160127961Y-101765241D01*
X160099523Y-101709428D01*
X160041730Y-101629882D01*
X159990864Y-101559870D01*
X159990860Y-101559865D01*
X159860134Y-101429139D01*
X159860129Y-101429135D01*
X159710575Y-101320479D01*
X159710574Y-101320478D01*
X159710572Y-101320477D01*
X159657799Y-101293588D01*
X159545852Y-101236547D01*
X159545849Y-101236546D01*
X159370030Y-101179420D01*
X159357737Y-101177473D01*
X159294602Y-101147544D01*
X159257671Y-101088232D01*
X159258669Y-101018370D01*
X159297279Y-100960137D01*
X159357737Y-100932527D01*
X159359508Y-100932246D01*
X159370029Y-100930580D01*
X159545852Y-100873452D01*
X159710572Y-100789523D01*
X159860136Y-100680859D01*
X159990859Y-100550136D01*
X160099523Y-100400572D01*
X160183452Y-100235852D01*
X160199976Y-100184996D01*
X160240580Y-100060030D01*
X160269500Y-99877440D01*
X160269500Y-99692559D01*
X160240580Y-99509969D01*
X160183453Y-99334150D01*
X160183452Y-99334147D01*
X160131908Y-99232987D01*
X160099523Y-99169428D01*
X160043507Y-99092328D01*
X159990864Y-99019870D01*
X159990860Y-99019865D01*
X159860134Y-98889139D01*
X159860129Y-98889135D01*
X159710575Y-98780479D01*
X159710574Y-98780478D01*
X159710572Y-98780477D01*
X159657799Y-98753588D01*
X159545852Y-98696547D01*
X159545849Y-98696546D01*
X159370030Y-98639420D01*
X159357737Y-98637473D01*
X159294602Y-98607544D01*
X159257671Y-98548232D01*
X159258669Y-98478370D01*
X159297279Y-98420137D01*
X159357737Y-98392527D01*
X159359508Y-98392246D01*
X159370029Y-98390580D01*
X159545852Y-98333452D01*
X159710572Y-98249523D01*
X159860136Y-98140859D01*
X159990859Y-98010136D01*
X160099523Y-97860572D01*
X160183452Y-97695852D01*
X160240580Y-97520029D01*
X160248188Y-97471993D01*
X160269500Y-97337440D01*
X160269500Y-97152562D01*
X160264058Y-97118206D01*
X160264058Y-97118204D01*
X160261513Y-97102135D01*
X162149500Y-97102135D01*
X162149500Y-98897870D01*
X162149501Y-98897876D01*
X162155908Y-98957483D01*
X162206202Y-99092328D01*
X162206206Y-99092335D01*
X162292452Y-99207544D01*
X162292455Y-99207547D01*
X162407664Y-99293793D01*
X162407671Y-99293797D01*
X162539082Y-99342810D01*
X162595016Y-99384681D01*
X162619433Y-99450145D01*
X162604582Y-99518418D01*
X162583431Y-99546673D01*
X162469889Y-99660215D01*
X162344951Y-99832179D01*
X162248444Y-100021585D01*
X162182753Y-100223760D01*
X162149500Y-100433713D01*
X162149500Y-100646287D01*
X162156315Y-100689314D01*
X162172186Y-100789523D01*
X162182754Y-100856243D01*
X162243227Y-101042360D01*
X162248444Y-101058414D01*
X162344951Y-101247820D01*
X162469890Y-101419786D01*
X162620213Y-101570109D01*
X162792179Y-101695048D01*
X162792181Y-101695049D01*
X162792184Y-101695051D01*
X162801493Y-101699794D01*
X162852290Y-101747766D01*
X162869087Y-101815587D01*
X162846552Y-101881722D01*
X162801505Y-101920760D01*
X162792446Y-101925376D01*
X162792440Y-101925380D01*
X162738282Y-101964727D01*
X162738282Y-101964728D01*
X163370591Y-102597037D01*
X163307007Y-102614075D01*
X163192993Y-102679901D01*
X163099901Y-102772993D01*
X163034075Y-102887007D01*
X163017037Y-102950591D01*
X162384728Y-102318282D01*
X162384727Y-102318282D01*
X162345380Y-102372439D01*
X162248904Y-102561782D01*
X162183242Y-102763869D01*
X162183242Y-102763872D01*
X162150000Y-102973753D01*
X162150000Y-103186246D01*
X162183242Y-103396127D01*
X162183242Y-103396130D01*
X162248904Y-103598217D01*
X162345375Y-103787550D01*
X162384728Y-103841716D01*
X163017037Y-103209408D01*
X163034075Y-103272993D01*
X163099901Y-103387007D01*
X163192993Y-103480099D01*
X163307007Y-103545925D01*
X163370590Y-103562962D01*
X162738282Y-104195269D01*
X162738282Y-104195270D01*
X162792449Y-104234624D01*
X162981782Y-104331095D01*
X163183870Y-104396757D01*
X163393754Y-104430000D01*
X163606246Y-104430000D01*
X163816127Y-104396757D01*
X163816130Y-104396757D01*
X164018217Y-104331095D01*
X164207554Y-104234622D01*
X164261716Y-104195270D01*
X164261717Y-104195270D01*
X163629408Y-103562962D01*
X163692993Y-103545925D01*
X163807007Y-103480099D01*
X163900099Y-103387007D01*
X163965925Y-103272993D01*
X163982962Y-103209408D01*
X164615270Y-103841717D01*
X164615270Y-103841716D01*
X164654622Y-103787554D01*
X164751095Y-103598217D01*
X164816757Y-103396130D01*
X164816757Y-103396127D01*
X164850000Y-103186246D01*
X164850000Y-102973753D01*
X164816757Y-102763872D01*
X164816757Y-102763869D01*
X164751095Y-102561782D01*
X164654624Y-102372449D01*
X164615270Y-102318282D01*
X164615269Y-102318282D01*
X163982962Y-102950590D01*
X163965925Y-102887007D01*
X163900099Y-102772993D01*
X163807007Y-102679901D01*
X163692993Y-102614075D01*
X163629409Y-102597037D01*
X164261716Y-101964728D01*
X164207547Y-101925373D01*
X164207547Y-101925372D01*
X164198500Y-101920763D01*
X164147706Y-101872788D01*
X164130912Y-101804966D01*
X164153451Y-101738832D01*
X164198508Y-101699793D01*
X164207816Y-101695051D01*
X164297514Y-101629882D01*
X164379786Y-101570109D01*
X164379788Y-101570106D01*
X164379792Y-101570104D01*
X164530104Y-101419792D01*
X164530106Y-101419788D01*
X164530109Y-101419786D01*
X164655048Y-101247820D01*
X164655047Y-101247820D01*
X164655051Y-101247816D01*
X164751557Y-101058412D01*
X164817246Y-100856243D01*
X164850500Y-100646287D01*
X164850500Y-100433713D01*
X164817246Y-100223757D01*
X164751557Y-100021588D01*
X164655051Y-99832184D01*
X164655049Y-99832181D01*
X164655048Y-99832179D01*
X164530109Y-99660213D01*
X164416569Y-99546673D01*
X164383084Y-99485350D01*
X164388068Y-99415658D01*
X164429940Y-99359725D01*
X164460915Y-99342810D01*
X164592331Y-99293796D01*
X164707546Y-99207546D01*
X164793796Y-99092331D01*
X164844091Y-98957483D01*
X164850500Y-98897873D01*
X164850499Y-97102128D01*
X164844091Y-97042517D01*
X164817032Y-96969969D01*
X164793797Y-96907671D01*
X164793793Y-96907664D01*
X164707547Y-96792455D01*
X164707544Y-96792452D01*
X164592335Y-96706206D01*
X164592328Y-96706202D01*
X164457482Y-96655908D01*
X164457483Y-96655908D01*
X164397883Y-96649501D01*
X164397881Y-96649500D01*
X164397873Y-96649500D01*
X164397864Y-96649500D01*
X162602129Y-96649500D01*
X162602123Y-96649501D01*
X162542516Y-96655908D01*
X162407671Y-96706202D01*
X162407664Y-96706206D01*
X162292455Y-96792452D01*
X162292452Y-96792455D01*
X162206206Y-96907664D01*
X162206202Y-96907671D01*
X162155908Y-97042517D01*
X162149501Y-97102116D01*
X162149501Y-97102123D01*
X162149500Y-97102135D01*
X160261513Y-97102135D01*
X160252070Y-97042516D01*
X160240580Y-96969971D01*
X160183452Y-96794148D01*
X160183452Y-96794147D01*
X160138641Y-96706202D01*
X160099523Y-96629428D01*
X160085639Y-96610318D01*
X159990864Y-96479870D01*
X159990860Y-96479865D01*
X159860134Y-96349139D01*
X159860129Y-96349135D01*
X159710575Y-96240479D01*
X159710574Y-96240478D01*
X159710572Y-96240477D01*
X159657799Y-96213588D01*
X159545852Y-96156547D01*
X159545849Y-96156546D01*
X159370030Y-96099420D01*
X159357737Y-96097473D01*
X159294602Y-96067544D01*
X159257671Y-96008232D01*
X159258669Y-95938370D01*
X159297279Y-95880137D01*
X159357737Y-95852527D01*
X159359508Y-95852246D01*
X159370029Y-95850580D01*
X159545852Y-95793452D01*
X159710572Y-95709523D01*
X159860136Y-95600859D01*
X159990859Y-95470136D01*
X160099523Y-95320572D01*
X160183452Y-95155852D01*
X160240580Y-94980029D01*
X160269500Y-94797440D01*
X160269500Y-94612559D01*
X160240580Y-94429969D01*
X160183453Y-94254150D01*
X160183452Y-94254147D01*
X160154388Y-94197106D01*
X160099523Y-94089428D01*
X160085639Y-94070318D01*
X159990864Y-93939870D01*
X159990860Y-93939865D01*
X159860134Y-93809139D01*
X159860129Y-93809135D01*
X159710575Y-93700479D01*
X159710574Y-93700478D01*
X159710572Y-93700477D01*
X159657799Y-93673588D01*
X159545852Y-93616547D01*
X159545849Y-93616546D01*
X159370033Y-93559421D01*
X159370031Y-93559420D01*
X159370029Y-93559420D01*
X159357736Y-93557473D01*
X159356133Y-93557219D01*
X159293000Y-93527287D01*
X159256071Y-93467974D01*
X159257071Y-93398111D01*
X159295683Y-93339880D01*
X159356143Y-93312272D01*
X159369911Y-93310091D01*
X159545661Y-93252986D01*
X159710310Y-93169094D01*
X159730715Y-93154268D01*
X159730716Y-93154268D01*
X159159090Y-92582642D01*
X159257114Y-92556378D01*
X159352886Y-92501084D01*
X159431084Y-92422886D01*
X159486378Y-92327114D01*
X159512642Y-92229090D01*
X160084268Y-92800716D01*
X160084268Y-92800715D01*
X160099094Y-92780310D01*
X160182986Y-92615661D01*
X160240092Y-92439908D01*
X160269000Y-92257395D01*
X160269000Y-92072604D01*
X160240092Y-91890091D01*
X160182986Y-91714338D01*
X160099092Y-91549686D01*
X160084269Y-91529283D01*
X159512642Y-92100909D01*
X159486378Y-92002886D01*
X159431084Y-91907114D01*
X159352886Y-91828916D01*
X159257114Y-91773622D01*
X159159090Y-91747356D01*
X159730716Y-91175730D01*
X159710307Y-91160903D01*
X159710303Y-91160900D01*
X159545664Y-91077014D01*
X159369910Y-91019907D01*
X159356136Y-91017726D01*
X159293002Y-90987796D01*
X159256072Y-90928484D01*
X159257070Y-90858621D01*
X159295681Y-90800389D01*
X159356137Y-90772780D01*
X159370029Y-90770580D01*
X159545852Y-90713452D01*
X159710572Y-90629523D01*
X159860136Y-90520859D01*
X159990859Y-90390136D01*
X160099523Y-90240572D01*
X160183452Y-90075852D01*
X160240580Y-89900029D01*
X160269500Y-89717440D01*
X160269500Y-89532559D01*
X160240580Y-89349969D01*
X160183453Y-89174150D01*
X160183452Y-89174147D01*
X160154388Y-89117106D01*
X160099523Y-89009428D01*
X160093647Y-89001340D01*
X160054447Y-88947385D01*
X160050215Y-88935525D01*
X160041971Y-88926011D01*
X160038697Y-88903244D01*
X160030967Y-88881579D01*
X160033818Y-88869315D01*
X160032027Y-88856853D01*
X160041583Y-88835927D01*
X160046793Y-88813525D01*
X160055821Y-88804750D01*
X160061052Y-88793297D01*
X160080402Y-88780861D01*
X160096898Y-88764830D01*
X160110645Y-88761425D01*
X160119830Y-88755523D01*
X160154765Y-88750500D01*
X160352576Y-88750500D01*
X160408030Y-88763591D01*
X165930954Y-91525053D01*
X165982113Y-91572640D01*
X165999500Y-91635962D01*
X165999500Y-110625500D01*
X165979815Y-110692539D01*
X165927011Y-110738294D01*
X165875500Y-110749500D01*
X133466430Y-110749500D01*
X133399391Y-110729815D01*
X133353636Y-110677011D01*
X133343692Y-110607853D01*
X133346655Y-110593409D01*
X133350499Y-110579061D01*
X133350500Y-110579055D01*
X133350500Y-108347864D01*
X133370185Y-108280825D01*
X133422989Y-108235070D01*
X133474500Y-108223864D01*
X133485826Y-108223864D01*
X133485826Y-106010574D01*
X129874500Y-106010574D01*
X129807461Y-105990889D01*
X129761706Y-105938085D01*
X129750500Y-105886574D01*
X129750500Y-100592500D01*
X131938815Y-100592500D01*
X131938815Y-100689314D01*
X131972672Y-100903075D01*
X132039550Y-101108908D01*
X132039551Y-101108911D01*
X132137809Y-101301751D01*
X132265026Y-101476848D01*
X132265026Y-101476849D01*
X132418059Y-101629882D01*
X132593157Y-101757099D01*
X132785997Y-101855357D01*
X132790498Y-101857221D01*
X132790073Y-101858246D01*
X132843387Y-101894696D01*
X132870591Y-101959052D01*
X132858682Y-102027900D01*
X132820285Y-102073515D01*
X132708003Y-102155092D01*
X132707998Y-102155096D01*
X132535423Y-102327671D01*
X132535419Y-102327676D01*
X132391976Y-102525110D01*
X132281177Y-102742565D01*
X132205758Y-102974680D01*
X132199503Y-103014174D01*
X132167580Y-103215726D01*
X132167580Y-103459780D01*
X132179101Y-103532522D01*
X132203654Y-103687544D01*
X132205759Y-103700829D01*
X132281176Y-103932938D01*
X132366231Y-104099869D01*
X132391976Y-104150395D01*
X132535419Y-104347829D01*
X132535423Y-104347834D01*
X132707998Y-104520409D01*
X132708003Y-104520413D01*
X132880216Y-104645532D01*
X132905441Y-104663859D01*
X133122895Y-104774657D01*
X133355004Y-104850074D01*
X133596053Y-104888253D01*
X133596054Y-104888253D01*
X133840106Y-104888253D01*
X133840107Y-104888253D01*
X134081156Y-104850074D01*
X134313265Y-104774657D01*
X134530719Y-104663859D01*
X134728163Y-104520408D01*
X134900735Y-104347836D01*
X135044186Y-104150392D01*
X135154984Y-103932938D01*
X135230401Y-103700829D01*
X135268580Y-103459780D01*
X135268580Y-103215726D01*
X135230401Y-102974677D01*
X135154984Y-102742568D01*
X135044186Y-102525114D01*
X134933269Y-102372449D01*
X134900740Y-102327676D01*
X134900736Y-102327671D01*
X134728161Y-102155096D01*
X134728156Y-102155092D01*
X134530722Y-102011649D01*
X134530721Y-102011648D01*
X134530719Y-102011647D01*
X134438633Y-101964727D01*
X134313269Y-101900850D01*
X134215361Y-101869038D01*
X134157686Y-101829600D01*
X134130488Y-101765241D01*
X134142403Y-101696395D01*
X134180796Y-101650788D01*
X134209567Y-101629885D01*
X134362603Y-101476849D01*
X134362603Y-101476848D01*
X134489820Y-101301751D01*
X134588077Y-101108912D01*
X134603219Y-101062307D01*
X133693112Y-100901831D01*
X133709913Y-100885031D01*
X133775081Y-100772157D01*
X133808815Y-100646262D01*
X133808815Y-100515926D01*
X133780295Y-100409490D01*
X134688813Y-100569687D01*
X134688815Y-100569686D01*
X134688815Y-100472873D01*
X134654957Y-100259112D01*
X134588079Y-100053279D01*
X134588078Y-100053276D01*
X134489820Y-99860436D01*
X134362603Y-99685339D01*
X134362603Y-99685338D01*
X134209570Y-99532305D01*
X134034472Y-99405088D01*
X133841632Y-99306830D01*
X133795029Y-99291687D01*
X133795027Y-99291688D01*
X133634550Y-100201794D01*
X133617752Y-100184996D01*
X133504878Y-100119828D01*
X133378983Y-100086094D01*
X133248647Y-100086094D01*
X133142211Y-100114613D01*
X133302408Y-99206095D01*
X133302407Y-99206094D01*
X133205595Y-99206094D01*
X132991833Y-99239951D01*
X132786000Y-99306829D01*
X132785997Y-99306830D01*
X132593157Y-99405088D01*
X132418060Y-99532305D01*
X132418059Y-99532305D01*
X132265026Y-99685338D01*
X132265026Y-99685339D01*
X132137809Y-99860436D01*
X132039549Y-100053283D01*
X132024408Y-100099878D01*
X132024409Y-100099880D01*
X132934517Y-100260356D01*
X132917717Y-100277157D01*
X132852549Y-100390031D01*
X132818815Y-100515926D01*
X132818815Y-100646262D01*
X132847334Y-100752697D01*
X131938816Y-100592500D01*
X131938815Y-100592500D01*
X129750500Y-100592500D01*
X129750500Y-99246568D01*
X129770185Y-99179529D01*
X129783946Y-99161857D01*
X129787452Y-99158110D01*
X130972115Y-97891746D01*
X135624500Y-97891746D01*
X135624500Y-98108253D01*
X135658370Y-98322098D01*
X135725272Y-98528006D01*
X135725273Y-98528009D01*
X135811148Y-98696546D01*
X135823567Y-98720919D01*
X135950828Y-98896078D01*
X136103922Y-99049172D01*
X136279081Y-99176433D01*
X136373697Y-99224642D01*
X136471990Y-99274726D01*
X136471993Y-99274727D01*
X136530683Y-99293796D01*
X136677903Y-99341630D01*
X136891746Y-99375500D01*
X136891747Y-99375500D01*
X137108253Y-99375500D01*
X137108254Y-99375500D01*
X137322097Y-99341630D01*
X137528009Y-99274726D01*
X137720919Y-99176433D01*
X137720934Y-99176422D01*
X137721035Y-99176361D01*
X137721088Y-99176346D01*
X137725260Y-99174221D01*
X137725706Y-99175096D01*
X137788479Y-99158110D01*
X137855084Y-99179219D01*
X137899703Y-99232987D01*
X137909836Y-99282082D01*
X137909836Y-99439008D01*
X137944871Y-99660213D01*
X137948015Y-99680058D01*
X138023432Y-99912167D01*
X138129240Y-100119828D01*
X138134232Y-100129624D01*
X138277675Y-100327058D01*
X138277679Y-100327063D01*
X138450254Y-100499638D01*
X138450259Y-100499642D01*
X138578068Y-100592500D01*
X138647697Y-100643088D01*
X138865151Y-100753886D01*
X139097260Y-100829303D01*
X139338309Y-100867482D01*
X139338310Y-100867482D01*
X139582362Y-100867482D01*
X139582363Y-100867482D01*
X139823412Y-100829303D01*
X140055521Y-100753886D01*
X140272975Y-100643088D01*
X140470419Y-100499637D01*
X140642991Y-100327065D01*
X140786442Y-100129621D01*
X140897240Y-99912167D01*
X140972657Y-99680058D01*
X141010836Y-99439009D01*
X141010836Y-99194955D01*
X140972657Y-98953906D01*
X140897240Y-98721797D01*
X140786442Y-98504343D01*
X140724800Y-98419500D01*
X140642996Y-98306905D01*
X140642992Y-98306900D01*
X140470417Y-98134325D01*
X140470412Y-98134321D01*
X140272978Y-97990878D01*
X140272977Y-97990877D01*
X140272975Y-97990876D01*
X140055521Y-97880078D01*
X139823412Y-97804661D01*
X139823410Y-97804660D01*
X139823408Y-97804660D01*
X139655105Y-97778003D01*
X139582363Y-97766482D01*
X139338309Y-97766482D01*
X139282429Y-97775332D01*
X139097263Y-97804660D01*
X138865148Y-97880079D01*
X138647697Y-97990875D01*
X138572385Y-98045593D01*
X138506578Y-98069072D01*
X138438525Y-98053246D01*
X138389830Y-98003140D01*
X138375500Y-97945274D01*
X138375500Y-97891746D01*
X138361707Y-97804661D01*
X138341630Y-97677903D01*
X138274726Y-97471991D01*
X138274726Y-97471990D01*
X138224642Y-97373697D01*
X138176433Y-97279081D01*
X138049172Y-97103922D01*
X137896078Y-96950828D01*
X137720919Y-96823567D01*
X137528009Y-96725273D01*
X137528006Y-96725272D01*
X137322098Y-96658370D01*
X137215175Y-96641435D01*
X137108254Y-96624500D01*
X136891746Y-96624500D01*
X136820465Y-96635790D01*
X136677901Y-96658370D01*
X136471993Y-96725272D01*
X136471990Y-96725273D01*
X136279080Y-96823567D01*
X136179145Y-96896174D01*
X136103922Y-96950828D01*
X136103920Y-96950830D01*
X136103919Y-96950830D01*
X135950830Y-97103919D01*
X135950830Y-97103920D01*
X135950828Y-97103922D01*
X135940450Y-97118206D01*
X135823567Y-97279080D01*
X135725273Y-97471990D01*
X135725272Y-97471993D01*
X135658370Y-97677901D01*
X135624500Y-97891746D01*
X130972115Y-97891746D01*
X136788954Y-91673744D01*
X136824046Y-91647552D01*
X142591970Y-88763591D01*
X142604559Y-88760619D01*
X142612489Y-88755523D01*
X142647424Y-88750500D01*
X142795235Y-88750500D01*
X142862274Y-88770185D01*
G37*
%TD.AperFunction*%
%TD*%
M02*
