%TF.GenerationSoftware,KiCad,Pcbnew,10.0.3*%
%TF.CreationDate,2026-07-22T21:37:07+02:00*%
%TF.ProjectId,rgb_lamp,7267625f-6c61-46d7-902e-6b696361645f,rev?*%
%TF.SameCoordinates,Original*%
%TF.FileFunction,Legend,Bot*%
%TF.FilePolarity,Positive*%
%FSLAX46Y46*%
G04 Gerber Fmt 4.6, Leading zero omitted, Abs format (unit mm)*
G04 Created by KiCad (PCBNEW 10.0.3) date 2026-07-22 21:37:07*
%MOMM*%
%LPD*%
G01*
G04 APERTURE LIST*
%ADD10C,0.200000*%
G04 APERTURE END LIST*
D10*
X159475564Y-109450552D02*
X159285088Y-110117219D01*
X159285088Y-110117219D02*
X159094612Y-109641028D01*
X159094612Y-109641028D02*
X158904136Y-110117219D01*
X158904136Y-110117219D02*
X158713660Y-109450552D01*
X158427945Y-109450552D02*
X158237469Y-110117219D01*
X158237469Y-110117219D02*
X158046993Y-109641028D01*
X158046993Y-109641028D02*
X157856517Y-110117219D01*
X157856517Y-110117219D02*
X157666041Y-109450552D01*
X157380326Y-109450552D02*
X157189850Y-110117219D01*
X157189850Y-110117219D02*
X156999374Y-109641028D01*
X156999374Y-109641028D02*
X156808898Y-110117219D01*
X156808898Y-110117219D02*
X156618422Y-109450552D01*
X156237469Y-110021980D02*
X156189850Y-110069600D01*
X156189850Y-110069600D02*
X156237469Y-110117219D01*
X156237469Y-110117219D02*
X156285088Y-110069600D01*
X156285088Y-110069600D02*
X156237469Y-110021980D01*
X156237469Y-110021980D02*
X156237469Y-110117219D01*
X155380327Y-110069600D02*
X155475565Y-110117219D01*
X155475565Y-110117219D02*
X155666041Y-110117219D01*
X155666041Y-110117219D02*
X155761279Y-110069600D01*
X155761279Y-110069600D02*
X155808898Y-109974361D01*
X155808898Y-109974361D02*
X155808898Y-109593409D01*
X155808898Y-109593409D02*
X155761279Y-109498171D01*
X155761279Y-109498171D02*
X155666041Y-109450552D01*
X155666041Y-109450552D02*
X155475565Y-109450552D01*
X155475565Y-109450552D02*
X155380327Y-109498171D01*
X155380327Y-109498171D02*
X155332708Y-109593409D01*
X155332708Y-109593409D02*
X155332708Y-109688647D01*
X155332708Y-109688647D02*
X155808898Y-109783885D01*
X154761279Y-110117219D02*
X154856517Y-110069600D01*
X154856517Y-110069600D02*
X154904136Y-109974361D01*
X154904136Y-109974361D02*
X154904136Y-109117219D01*
X153999374Y-110069600D02*
X154094612Y-110117219D01*
X154094612Y-110117219D02*
X154285088Y-110117219D01*
X154285088Y-110117219D02*
X154380326Y-110069600D01*
X154380326Y-110069600D02*
X154427945Y-109974361D01*
X154427945Y-109974361D02*
X154427945Y-109593409D01*
X154427945Y-109593409D02*
X154380326Y-109498171D01*
X154380326Y-109498171D02*
X154285088Y-109450552D01*
X154285088Y-109450552D02*
X154094612Y-109450552D01*
X154094612Y-109450552D02*
X153999374Y-109498171D01*
X153999374Y-109498171D02*
X153951755Y-109593409D01*
X153951755Y-109593409D02*
X153951755Y-109688647D01*
X153951755Y-109688647D02*
X154427945Y-109783885D01*
X153523183Y-110117219D02*
X153523183Y-109117219D01*
X153427945Y-109736266D02*
X153142231Y-110117219D01*
X153142231Y-109450552D02*
X153523183Y-109831504D01*
X152856516Y-109450552D02*
X152475564Y-109450552D01*
X152713659Y-109117219D02*
X152713659Y-109974361D01*
X152713659Y-109974361D02*
X152666040Y-110069600D01*
X152666040Y-110069600D02*
X152570802Y-110117219D01*
X152570802Y-110117219D02*
X152475564Y-110117219D01*
X152142230Y-110117219D02*
X152142230Y-109450552D01*
X152142230Y-109641028D02*
X152094611Y-109545790D01*
X152094611Y-109545790D02*
X152046992Y-109498171D01*
X152046992Y-109498171D02*
X151951754Y-109450552D01*
X151951754Y-109450552D02*
X151856516Y-109450552D01*
X151380325Y-110117219D02*
X151475563Y-110069600D01*
X151475563Y-110069600D02*
X151523182Y-110021980D01*
X151523182Y-110021980D02*
X151570801Y-109926742D01*
X151570801Y-109926742D02*
X151570801Y-109641028D01*
X151570801Y-109641028D02*
X151523182Y-109545790D01*
X151523182Y-109545790D02*
X151475563Y-109498171D01*
X151475563Y-109498171D02*
X151380325Y-109450552D01*
X151380325Y-109450552D02*
X151237468Y-109450552D01*
X151237468Y-109450552D02*
X151142230Y-109498171D01*
X151142230Y-109498171D02*
X151094611Y-109545790D01*
X151094611Y-109545790D02*
X151046992Y-109641028D01*
X151046992Y-109641028D02*
X151046992Y-109926742D01*
X151046992Y-109926742D02*
X151094611Y-110021980D01*
X151094611Y-110021980D02*
X151142230Y-110069600D01*
X151142230Y-110069600D02*
X151237468Y-110117219D01*
X151237468Y-110117219D02*
X151380325Y-110117219D01*
X150618420Y-110117219D02*
X150618420Y-109117219D01*
X150523182Y-109736266D02*
X150237468Y-110117219D01*
X150237468Y-109450552D02*
X150618420Y-109831504D01*
X149808896Y-110117219D02*
X149808896Y-109450552D01*
X149808896Y-109641028D02*
X149761277Y-109545790D01*
X149761277Y-109545790D02*
X149713658Y-109498171D01*
X149713658Y-109498171D02*
X149618420Y-109450552D01*
X149618420Y-109450552D02*
X149523182Y-109450552D01*
X149046991Y-110117219D02*
X149142229Y-110069600D01*
X149142229Y-110069600D02*
X149189848Y-110021980D01*
X149189848Y-110021980D02*
X149237467Y-109926742D01*
X149237467Y-109926742D02*
X149237467Y-109641028D01*
X149237467Y-109641028D02*
X149189848Y-109545790D01*
X149189848Y-109545790D02*
X149142229Y-109498171D01*
X149142229Y-109498171D02*
X149046991Y-109450552D01*
X149046991Y-109450552D02*
X148904134Y-109450552D01*
X148904134Y-109450552D02*
X148808896Y-109498171D01*
X148808896Y-109498171D02*
X148761277Y-109545790D01*
X148761277Y-109545790D02*
X148713658Y-109641028D01*
X148713658Y-109641028D02*
X148713658Y-109926742D01*
X148713658Y-109926742D02*
X148761277Y-110021980D01*
X148761277Y-110021980D02*
X148808896Y-110069600D01*
X148808896Y-110069600D02*
X148904134Y-110117219D01*
X148904134Y-110117219D02*
X149046991Y-110117219D01*
X147856515Y-109450552D02*
X147856515Y-110117219D01*
X148285086Y-109450552D02*
X148285086Y-109974361D01*
X148285086Y-109974361D02*
X148237467Y-110069600D01*
X148237467Y-110069600D02*
X148142229Y-110117219D01*
X148142229Y-110117219D02*
X147999372Y-110117219D01*
X147999372Y-110117219D02*
X147904134Y-110069600D01*
X147904134Y-110069600D02*
X147856515Y-110021980D01*
X147475562Y-109450552D02*
X146951753Y-109450552D01*
X146951753Y-109450552D02*
X147475562Y-110117219D01*
X147475562Y-110117219D02*
X146951753Y-110117219D01*
X146189848Y-110069600D02*
X146285086Y-110117219D01*
X146285086Y-110117219D02*
X146475562Y-110117219D01*
X146475562Y-110117219D02*
X146570800Y-110069600D01*
X146570800Y-110069600D02*
X146618419Y-109974361D01*
X146618419Y-109974361D02*
X146618419Y-109593409D01*
X146618419Y-109593409D02*
X146570800Y-109498171D01*
X146570800Y-109498171D02*
X146475562Y-109450552D01*
X146475562Y-109450552D02*
X146285086Y-109450552D01*
X146285086Y-109450552D02*
X146189848Y-109498171D01*
X146189848Y-109498171D02*
X146142229Y-109593409D01*
X146142229Y-109593409D02*
X146142229Y-109688647D01*
X146142229Y-109688647D02*
X146618419Y-109783885D01*
X145713657Y-110117219D02*
X145713657Y-109117219D01*
X145618419Y-109736266D02*
X145332705Y-110117219D01*
X145332705Y-109450552D02*
X145713657Y-109831504D01*
X144904133Y-110021980D02*
X144856514Y-110069600D01*
X144856514Y-110069600D02*
X144904133Y-110117219D01*
X144904133Y-110117219D02*
X144951752Y-110069600D01*
X144951752Y-110069600D02*
X144904133Y-110021980D01*
X144904133Y-110021980D02*
X144904133Y-110117219D01*
X143999372Y-110069600D02*
X144094610Y-110117219D01*
X144094610Y-110117219D02*
X144285086Y-110117219D01*
X144285086Y-110117219D02*
X144380324Y-110069600D01*
X144380324Y-110069600D02*
X144427943Y-110021980D01*
X144427943Y-110021980D02*
X144475562Y-109926742D01*
X144475562Y-109926742D02*
X144475562Y-109641028D01*
X144475562Y-109641028D02*
X144427943Y-109545790D01*
X144427943Y-109545790D02*
X144380324Y-109498171D01*
X144380324Y-109498171D02*
X144285086Y-109450552D01*
X144285086Y-109450552D02*
X144094610Y-109450552D01*
X144094610Y-109450552D02*
X143999372Y-109498171D01*
X143666038Y-109450552D02*
X143142229Y-109450552D01*
X143142229Y-109450552D02*
X143666038Y-110117219D01*
X143666038Y-110117219D02*
X143142229Y-110117219D01*
M02*
